<svg width="315" height="179" viewBox="0 0 315 179" fill="none" xmlns="http://www.w3.org/2000/svg">
<path fill-rule="evenodd" clip-rule="evenodd" d="M181.526 80.4545L177.932 71L174 80.4545C174 82.3783 175.689 84 177.773 84C179.856 84 181.526 82.3783 181.526 80.4545Z" fill="#5974FF"/>
<path d="M138 99.3166C138 99.3166 143.399 93.1973 156.358 93.1973C169.317 93.1973 176.156 99.3166 176.156 99.3166" stroke="#0A2FF1" stroke-width="2.15977"/>
<circle cx="143.399" cy="65.6796" r="4.67949" fill="#0A2FF1"/>
<circle cx="171.475" cy="65.6794" r="4.67949" fill="#0A2FF1"/>
<path d="M108 88H0V108H108V88Z" fill="#3FFFF3"/>
<path d="M158.452 18C124.498 18 97.0117 45.5676 97.0117 79.6216C97.0117 113.676 124.498 141.243 158.452 141.243C192.406 141.243 219.893 113.676 219.893 79.6216C219.893 45.5676 192.406 18 158.452 18ZM158.452 128.27C131.613 128.27 109.947 106.541 109.947 79.6216C109.947 52.7027 131.613 30.973 158.452 30.973C185.292 30.973 206.958 52.7027 206.958 79.6216C206.958 106.541 185.292 128.27 158.452 128.27Z" fill="white" stroke="#0A2FF1" stroke-width="1.15526" stroke-miterlimit="10" stroke-linecap="round" stroke-linejoin="round"/>
<path d="M208.036 115.297L254.171 161.568C257.943 165.351 257.943 171.622 254.171 175.405L253.416 176.162C249.643 179.946 243.392 179.946 239.619 176.162L194.023 130.432" stroke="#0A2FF1" stroke-width="1.15526" stroke-miterlimit="10" stroke-linejoin="round"/>
<path d="M223.127 130.432L208.036 145.568" stroke="#0A2FF1" stroke-width="1.15526" stroke-miterlimit="10" stroke-linejoin="round"/>
<path d="M163.303 41.2432C170.668 41.4234 187.017 47.7297 192.945 62.8648" stroke="#0A2FF1" stroke-width="1.15526" stroke-linecap="round"/>
<ellipse cx="194.562" cy="68.2703" rx="1.61686" ry="1.62162" fill="#0A2FF1"/>
<path d="M315 136H262V148H315V136Z" fill="#3FFFF3"/>
<path d="M268 0H182V12H268V0Z" fill="#3FFFF3"/>
</svg>
